<?xml version="1.0" standalone="no"?>
<!DOCTYPE svg PUBLIC "-//W3C//DTD SVG 20010904//EN"
 "http://www.w3.org/TR/2001/REC-SVG-20010904/DTD/svg10.dtd">
<svg version="1.0" xmlns="http://www.w3.org/2000/svg"
 width="260.000000pt" height="260.000000pt" viewBox="0 0 260.000000 260.000000"
 preserveAspectRatio="xMidYMid meet">
<metadata>
Created by potrace 1.14, written by Peter Selinger 2001-2017
</metadata>
<g transform="translate(0.000000,260.000000) scale(0.100000,-0.100000)"
fill="#000000" stroke="none">
<path d="M650 2585 c-163 -51 -341 -227 -449 -444 -136 -271 -201 -542 -197
-816 3 -161 13 -215 56 -310 69 -150 219 -218 407 -184 216 40 436 233 534
467 36 88 45 181 18 207 -14 14 -17 12 -28 -27 -36 -119 -132 -270 -246 -382
-158 -156 -317 -204 -432 -130 -86 56 -123 155 -130 354 -10 257 45 515 162
756 93 191 212 330 340 396 50 26 72 32 132 32 66 1 75 -1 100 -27 26 -26 28
-33 28 -111 0 -78 -2 -88 -30 -128 -42 -58 -91 -90 -134 -86 -26 2 -36 -2 -42
-17 -16 -41 -10 -85 16 -110 45 -46 124 -27 199 49 123 122 134 351 23 454
-66 61 -225 89 -327 57z"/>
<path d="M2180 2578 c-216 -77 -411 -317 -529 -651 -77 -219 -109 -407 -105
-610 5 -248 73 -397 212 -464 51 -24 68 -27 157 -26 117 0 189 21 300 85 189
111 377 391 362 541 -5 55 -22 82 -33 51 -74 -210 -210 -398 -362 -497 -77
-51 -118 -67 -183 -74 -133 -14 -227 73 -262 243 -18 89 -15 327 7 449 84 475
348 862 602 883 103 9 147 -34 147 -140 0 -114 -74 -212 -161 -213 -41 0 -43
-2 -53 -37 -18 -68 15 -118 77 -118 41 0 108 36 148 80 122 135 127 347 11
448 -52 46 -100 63 -190 68 -66 4 -92 1 -145 -18z"/>
<path d="M1251 1567 c-61 -31 -82 -108 -51 -193 l18 -52 -23 -22 c-76 -72 -81
-206 -10 -277 27 -27 41 -33 77 -33 43 0 80 17 106 48 11 14 16 12 46 -17 47
-46 75 -33 66 29 -1 8 -14 30 -29 49 l-27 34 18 55 c15 45 16 59 5 80 -20 41
-33 33 -59 -36 l-13 -33 -30 54 -29 55 32 36 c18 20 32 38 33 39 9 40 8 95 -2
120 -16 40 -30 54 -64 67 -33 12 -35 12 -64 -3z m79 -116 c0 -14 -11 -39 -24
-56 l-23 -29 -17 31 c-17 34 -21 71 -8 89 23 34 72 10 72 -35z m0 -337 c0 -17
-39 -44 -66 -44 -59 0 -78 116 -28 171 16 18 19 16 55 -47 22 -37 39 -72 39
-80z"/>
<path d="M468 571 c-49 -23 -70 -105 -36 -136 7 -7 9 -6 5 1 -10 17 11 68 32
81 10 6 36 14 58 18 40 6 83 17 116 30 15 6 12 -3 -14 -46 -54 -91 -65 -108
-194 -303 -89 -136 -121 -192 -112 -198 6 -4 16 -6 21 -5 6 2 38 51 73 110
l64 107 59 0 59 0 -1 -82 c-1 -100 12 -138 46 -138 13 0 34 9 47 20 l24 19
-22 1 c-38 0 -45 57 -29 220 9 82 33 217 49 270 l14 46 -114 0 c-80 0 -124 -5
-145 -15z m151 -210 l-12 -91 -49 0 c-27 0 -48 4 -46 8 7 17 113 179 116 177
1 -1 -2 -44 -9 -94z"/>
<path d="M2020 481 c-13 -25 -13 -71 0 -71 6 0 10 6 10 14 0 7 10 20 22 28 14
9 19 20 15 31 -9 23 -34 21 -47 -2z"/>
<path d="M1023 477 c-20 -9 -63 -97 -63 -128 0 -6 -10 -9 -22 -7 -15 2 -23 -2
-23 -12 0 -8 6 -14 14 -12 17 4 10 -24 -30 -129 -33 -84 -64 -124 -75 -95 -7
18 16 121 45 196 10 27 17 51 14 53 -9 10 -44 -6 -54 -24 -14 -27 -49 -7 -49
26 0 14 -4 25 -10 25 -5 0 -13 0 -17 1 -13 1 -20 -45 -11 -69 5 -16 3 -42 -7
-75 -8 -28 -13 -53 -10 -55 5 -5 6 -1 28 63 8 22 18 40 23 40 5 0 15 4 23 9
10 6 12 4 7 -10 -33 -109 -44 -211 -26 -245 22 -40 58 -12 104 81 l28 55 -4
-45 c-5 -55 8 -110 27 -110 16 0 75 68 75 87 0 6 6 15 13 19 6 4 9 4 5 0 -10
-11 12 -79 31 -93 39 -30 89 -11 127 49 30 48 67 148 54 148 -5 0 -14 -17 -20
-37 -16 -51 -71 -132 -94 -139 -27 -9 -48 19 -48 63 -1 73 0 76 23 70 51 -13
109 37 109 92 -1 45 -20 71 -53 71 -44 0 -82 -43 -118 -134 -37 -96 -61 -132
-78 -122 -14 9 -9 59 12 153 17 70 24 84 40 82 24 -3 37 1 37 11 0 6 -9 10
-20 10 -26 0 -26 27 1 91 12 27 20 51 18 53 -2 2 -14 -1 -26 -7z m157 -190 c0
-34 -37 -87 -60 -87 -32 0 -21 54 20 98 24 25 40 21 40 -11z"/>
<path d="M1303 348 c-51 -24 -55 -115 -8 -186 22 -34 26 -49 22 -79 -11 -66
-62 -73 -63 -8 0 44 -17 56 -34 25 -16 -31 -3 -75 26 -89 56 -25 98 -7 144 65
l27 44 0 -41 c0 -24 7 -47 16 -56 14 -15 18 -15 41 1 14 9 39 42 55 74 l30 57
-5 -46 c-5 -48 8 -99 26 -99 12 0 49 36 67 66 10 16 10 13 3 -15 -7 -25 -6
-37 2 -42 27 -17 45 11 61 90 20 98 53 178 80 192 31 17 35 -4 15 -84 -26
-101 -31 -182 -13 -197 21 -17 59 9 84 58 l20 37 1 -40 c0 -37 13 -65 30 -65
15 0 48 37 69 75 13 25 21 33 20 20 -3 -52 2 -75 20 -85 27 -14 63 19 94 83
l23 48 0 -60 c0 -73 12 -91 48 -68 26 17 96 152 96 184 0 10 -14 -11 -31 -47
-30 -64 -46 -83 -61 -74 -12 8 2 82 31 172 l27 82 -22 0 c-13 0 -27 -8 -33
-17 -9 -17 -11 -17 -24 1 -7 10 -26 19 -41 19 -46 -1 -82 -46 -120 -153 -20
-58 -52 -110 -67 -110 -17 0 -3 89 27 178 13 40 24 75 24 77 0 3 -11 5 -24 5
-21 0 -28 -9 -45 -55 -12 -31 -21 -62 -21 -69 0 -25 -62 -137 -74 -133 -13 5
-11 40 10 128 8 36 14 81 12 100 -3 31 -6 34 -32 32 -16 -1 -42 -14 -57 -29
-25 -24 -27 -25 -22 -5 4 15 -1 23 -18 30 -13 5 -25 8 -27 6 -1 -1 -5 -22 -7
-45 -6 -55 -20 -102 -53 -168 -58 -119 -65 -23 -10 142 22 67 13 91 -21 57
-21 -21 -21 -21 -41 -1 -11 11 -28 17 -42 15 -32 -6 -82 -66 -97 -117 -12 -40
-68 -158 -74 -158 -2 0 -1 16 1 35 6 48 -3 77 -33 109 -46 49 -44 107 4 114
25 4 26 -8 6 -48 -12 -23 -12 -29 -1 -33 21 -8 36 7 42 44 9 52 -33 80 -83 57z
m287 -54 c0 -47 -86 -214 -111 -214 -32 0 11 165 56 214 24 26 55 27 55 0z
m600 -3 c0 -33 -42 -130 -78 -178 -30 -42 -42 -42 -42 1 0 64 50 178 84 194
26 12 36 7 36 -17z"/>
</g>
</svg>
